<svg xmlns="http://www.w3.org/2000/svg" xmlns:xlink="http://www.w3.org/1999/xlink" viewBox="0 0 20 27.5" version="1.1" x="0px" y="0px"><title>ic_info@3x</title><desc>Created with Sketch.</desc><g stroke="none" stroke-width="1" fill="#FFCC00" fill-rule="evenodd"><g fill="#FFCC00"><path d="M1.25886324,22 L0,22 C0,16.4771525 4.4771525,14 10,14 C15.5228475,14 20,16.4771525 20,22 L18.7411368,22 L1.25886324,22 Z M1.58370092,20.5 C2.16568961,17.0578063 5.71205434,15.5 10,15.5 C14.2879457,15.5 17.8343104,17.0578063 18.4162991,20.5 L1.58370092,20.5 Z"/><path d="M10,12 C13.3137085,12 16,9.3137085 16,6 C16,2.6862915 13.3137085,0 10,0 C6.6862915,0 4,2.6862915 4,6 C4,9.3137085 6.6862915,12 10,12 Z M10,10.5 C12.4852814,10.5 14.5,8.48528137 14.5,6 C14.5,3.51471863 12.4852814,1.5 10,1.5 C7.51471863,1.5 5.5,3.51471863 5.5,6 C5.5,8.48528137 7.51471863,10.5 10,10.5 Z"/></g></g><text x="0" y="37" fill="red" font-size="5px" font-weight="bold" font-family="'Helvetica Neue', Helvetica, Arial-Unicode, Arial, Sans-serif">Created by Тимур Минвалеев</text><text x="0" y="42" fill="red" font-size="5px" font-weight="bold" font-family="'Helvetica Neue', Helvetica, Arial-Unicode, Arial, Sans-serif">from the Noun Project</text></svg>